# xmcd CD database file
# Copyright (C) 1993-1998 Ti Kan
# 
# Track frame offsets:
#     182
#     16347
#     31207
#     47015
#     61912
#     77650
#     91647
#     105330
#     124222
#     135205
#     151570
#     166982
#     182400
#     196725
#     211805
#     228912
#     239010
#     253090
# 
# Disc length: 3586 seconds
# 
# Revision: 1
# Processed by: cddbd v1.4b41PL1 Copyright (c) Steve Scherf et al.
# Submitted via: DiscPlay 4.0.4
# 
DISCID=ce0e0012
DTITLE=Michel Fugain - Ses plus grands succ s
DYEAR=1900
DGENRE=
TTITLE0=Les ann es guitare
TTITLE1=Viva la vida
TTITLE2=La f te
TTITLE3=Les Acadiens
TTITLE4=La libert , demandez la
TTITLE5=Forteresse
TTITLE6=Chaque jour de plus
TTITLE7=Ne m'oublie pas
TTITLE8=un caf  et l'addition
TTITLE9=Fais comme l'oiseau
TTITLE10=Une belle histoire
TTITLE11=Je n'aurai pas le temps
TTITLE12=Chanson pour les demoiselles
TTITLE13=Les soirs d' t 
TTITLE14=Ce soleil l 
TTITLE15=Les cerises de Monsieur Cl ment
TTITLE16=Je nous aime
TTITLE17=O  s'en vont...
EXTD=
EXTT0=
EXTT1=
EXTT2=
EXTT3=
EXTT4=
EXTT5=
EXTT6=
EXTT7=
EXTT8=
EXTT9=
EXTT10=
EXTT11=
EXTT12=
EXTT13=
EXTT14=
EXTT15=
EXTT16=
EXTT17=
PLAYORDER=
